<svg xmlns="http://www.w3.org/2000/svg" width="41.474" height="40.169" viewBox="0 0 41.474 40.169">
  <defs>
    <style>
      .cls-1 {
        fill: #fff;
      }
    </style>
  </defs>
  <title>btn_pagetop</title>
  <g id="レイヤー_2" data-name="レイヤー 2">
    <g id="ヘッダーとフッター">
      <g>
        <g>
          <path class="cls-1" d="M11.469,28.245H7.156V39.976h-2.9V28.245H0V25.9H11.469Z"/>
          <path class="cls-1" d="M25.346,33.255A8.48,8.48,0,0,1,24.61,36.9a5.537,5.537,0,0,1-2.1,2.418,5.811,5.811,0,0,1-3.138.851,5.859,5.859,0,0,1-3.124-.841,5.593,5.593,0,0,1-2.127-2.4,8.249,8.249,0,0,1-.764-3.593v-.7a8.446,8.446,0,0,1,.75-3.66,5.58,5.58,0,0,1,2.118-2.428A5.825,5.825,0,0,1,19.35,25.7a5.834,5.834,0,0,1,3.129.846A5.584,5.584,0,0,1,24.6,28.976a8.422,8.422,0,0,1,.75,3.65Zm-2.941-.639a5.926,5.926,0,0,0-.793-3.365A2.583,2.583,0,0,0,19.35,28.1,2.583,2.583,0,0,0,17.1,29.236a5.845,5.845,0,0,0-.8,3.332v.687a6.006,6.006,0,0,0,.793,3.346,2.576,2.576,0,0,0,2.282,1.189,2.553,2.553,0,0,0,2.243-1.145,5.958,5.958,0,0,0,.793-3.342Z"/>
          <path class="cls-1" d="M31.41,35.015v4.961h-2.9V25.9H34a6.355,6.355,0,0,1,2.79.58,4.266,4.266,0,0,1,1.852,1.649,4.6,4.6,0,0,1,.648,2.432,4.042,4.042,0,0,1-1.417,3.263,5.9,5.9,0,0,1-3.922,1.2Zm0-2.35H34a2.548,2.548,0,0,0,1.755-.542,1.966,1.966,0,0,0,.6-1.547,2.324,2.324,0,0,0-.609-1.673,2.282,2.282,0,0,0-1.683-.658H31.41Z"/>
        </g>
        <polygon class="cls-1" points="20.834 0 0.194 13.862 41.474 13.862 20.834 0"/>
      </g>
    </g>
  </g>
</svg>
