<svg xmlns="http://www.w3.org/2000/svg" viewBox="0 0 83 73"><defs><style>.cls-1{fill:none;stroke:#fff;stroke-linecap:round;stroke-linejoin:round;stroke-width:3px;}</style></defs><title>icon_anayze</title><g id="レイヤー_2" data-name="レイヤー 2"><g id="デザイン"><polyline class="cls-1" points="1.5 17.45 1.5 45.8 11.94 47.58"/><path class="cls-1" d="M10.82,9.55A53.23,53.23,0,0,1,27,5l9.32,16.81L1.5,17.34C3.09,14.49,6.18,11.79,10.82,9.55Z"/><path class="cls-1" d="M60.63,15.26a47.83,47.83,0,0,1,10.65,3.41c13.58,6.39,13.58,16.74,0,23.13s-35.6,6.38-49.18,0C12.91,37.48,10,31.35,13.21,25.85l33.54,4.23Z"/><path class="cls-1" d="M81.5,30.74V55.06c0,9.08-15.57,16.44-34.78,16.44S11.93,64.14,11.93,55.06V30.74"/><path class="cls-1" d="M61.37,3.06A67.31,67.31,0,0,0,46.72,1.5,68.12,68.12,0,0,0,33.5,2.76L43.89,22.11Z"/></g></g></svg>