<svg xmlns="http://www.w3.org/2000/svg" width="46.723" height="36.157" viewBox="0 0 46.723 36.157">
  <defs>
    <style>
      .cls-1 {
        fill: #fff;
      }
    </style>
  </defs>
  <title>icon_feedback_sm</title>
  <g id="レイヤー_2" data-name="レイヤー 2">
    <g id="ヘッダーとフッター">
      <g>
        <path class="cls-1" d="M0,17.6c0,9.721,10.459,17.6,23.362,17.6a30,30,0,0,0,9.106-1.388S36.205,36.876,45.288,36a20.888,20.888,0,0,1-4.376-6.793c3.615-3.1,5.811-7.16,5.811-11.609C46.722,7.879,36.264,0,23.361,0S0,7.879,0,17.6Zm4.672,0c0-3.2,1.769-6.291,4.981-8.71A22.837,22.837,0,0,1,23.361,4.672,22.835,22.835,0,0,1,37.069,8.887c3.212,2.419,4.982,5.513,4.982,8.712S40.282,23.89,37.07,26.31a22.837,22.837,0,0,1-13.708,4.215A22.838,22.838,0,0,1,9.653,26.31C6.441,23.89,4.672,20.8,4.672,17.6Z"/>
        <circle class="cls-1" cx="23.362" cy="17.598" r="3.271"/>
        <circle class="cls-1" cx="13.083" cy="17.598" r="3.271"/>
        <circle class="cls-1" cx="33.667" cy="17.598" r="3.271"/>
      </g>
    </g>
  </g>
</svg>
