<svg xmlns="http://www.w3.org/2000/svg" width="27" height="27" viewBox="0 0 27 27">
  <defs>
    <style>
      .cls-1 {
        fill: #fff;
      }
    </style>
  </defs>
  <title>icon_help_sm</title>
  <g id="レイヤー_2" data-name="レイヤー 2">
    <g id="ヘッダーとフッター">
      <g>
        <path class="cls-1" d="M9.286,9.483a4.33,4.33,0,0,1,.908-1.44A4.087,4.087,0,0,1,11.6,7.091a4.789,4.789,0,0,1,1.844-.341,5.82,5.82,0,0,1,2.194.36,4.261,4.261,0,0,1,1.417.9,3.248,3.248,0,0,1,.769,1.154,3.314,3.314,0,0,1,.231,1.154,3.934,3.934,0,0,1-.231,1.459,3.621,3.621,0,0,1-.574.979,3.844,3.844,0,0,1-.76.693q-.416.285-.787.572a3.681,3.681,0,0,0-.658.656,1.888,1.888,0,0,0-.361.923v.7h-2.5v-.831a3.6,3.6,0,0,1,.889-2.244,4.682,4.682,0,0,1,.7-.656q.37-.277.685-.554a2.442,2.442,0,0,0,.509-.609,1.511,1.511,0,0,0,.176-.831,1.685,1.685,0,0,0-.416-1.256,1.588,1.588,0,0,0-1.158-.406,1.8,1.8,0,0,0-.861.193,1.715,1.715,0,0,0-.592.518,2.245,2.245,0,0,0-.344.757,3.753,3.753,0,0,0-.11.933H8.944A5.261,5.261,0,0,1,9.286,9.483Zm5.548,7.923V20.25H11.926V17.406Z"/>
        <path class="cls-1" d="M13.5,0A13.5,13.5,0,1,0,27,13.5,13.515,13.515,0,0,0,13.5,0Zm0,24.75A11.25,11.25,0,1,1,24.75,13.5,11.263,11.263,0,0,1,13.5,24.75Z"/>
      </g>
    </g>
  </g>
</svg>
