<svg xmlns="http://www.w3.org/2000/svg" width="37.3" height="41.15" viewBox="0 0 37.3 41.15">
  <defs>
    <style>
      .cls-1 {
        fill: none;
        stroke: #fff;
        stroke-miterlimit: 10;
        stroke-width: 2.3px;
      }
    </style>
  </defs>
  <title>icon_database_sm</title>
  <g id="レイヤー_2" data-name="レイヤー 2">
    <g id="aboutのコピー">
      <g>
        <path class="cls-1" d="M8.833,19.022a3.493,3.493,0,0,0,3.415-3.647V14.159a3.493,3.493,0,0,0-3.415-3.647,3.493,3.493,0,0,0-3.415,3.647v1.216A3.493,3.493,0,0,0,8.833,19.022Z"/>
        <path class="cls-1" d="M15.663,23.278a13.811,13.811,0,0,0-5.123-1.7H6.272c-3.059,0-5.122,1.286-5.122,5.106v3.4c0,3.4,2.765,4.255,5.122,4.255H9.687"/>
        <path class="cls-1" d="M5.418,25.831v3.4a.852.852,0,0,0,.854.851h5.122"/>
        <line class="cls-1" x1="4.565" y1="34.341" x2="4.565" y2="41.15"/>
        <line class="cls-1" x1="13.955" y1="36.044" x2="13.955" y2="41.15"/>
        <path class="cls-1" d="M19.729,32.639H16.516l1.707-3.4H21.11a.851.851,0,0,1,.764,1.232L21.256,31.7A1.707,1.707,0,0,1,19.729,32.639Z"/>
        <line class="cls-1" x1="8.833" y1="25.831" x2="13.101" y2="28.384"/>
        <polyline class="cls-1" points="20.784 29.235 22.491 25.831 13.955 25.831 8.833 36.044 17.37 36.044 19.077 32.639"/>
        <path class="cls-1" d="M18.223,1.15H33.589A2.557,2.557,0,0,1,36.15,3.7V13.916a3.41,3.41,0,0,1-3.415,3.4H25.052l-3.585,4.766a.854.854,0,0,1-1.537-.51V17.32H18.223a2.557,2.557,0,0,1-2.561-2.553V3.7A2.557,2.557,0,0,1,18.223,1.15Z"/>
        <polyline class="cls-1" points="21.638 9.661 25.052 13.065 31.028 5.405"/>
      </g>
    </g>
  </g>
</svg>
