<svg xmlns="http://www.w3.org/2000/svg" viewBox="0 0 83 83"><defs><style>.cls-1{fill:none;stroke:#fff;stroke-linecap:round;stroke-linejoin:round;stroke-width:3px;}</style></defs><title>icon-about-knonc</title><g id="レイヤー_2" data-name="レイヤー 2"><g id="デザイン"><path class="cls-1" d="M61.51,74.23C71.14,68.89,78,59.73,79.68,49"/><path class="cls-1" d="M21.5,74.23A35.34,35.34,0,0,1,3.33,49"/><path class="cls-1" d="M58.57,5.73a36.58,36.58,0,0,0-34.15,0"/><path class="cls-1" d="M68.77,27c-5.72,0-12.72,3.84-12.72,6.47v6.26a20.8,20.8,0,0,0,12.72,3.64A20.82,20.82,0,0,0,81.5,39.68V33.42C81.5,30.79,74.5,27,68.77,27Z"/><path class="cls-1" d="M68.77,8.77c-3.76,0-7.27,2.93-7.27,6.55v5.09C61.5,24,65,27,68.77,27s7.28-2.93,7.28-6.54V15.32C76.05,11.7,72.53,8.77,68.77,8.77Z"/><path class="cls-1" d="M41.5,65.14c-5.73,0-12.73,3.83-12.73,6.46v6.26c3.64,2.93,8.16,3.64,12.73,3.64s9.09-.71,12.73-3.64V71.6C54.23,69,47.23,65.14,41.5,65.14Z"/><path class="cls-1" d="M41.5,47c-3.76,0-7.27,2.94-7.27,6.55v5.09c0,3.62,3.51,6.55,7.27,6.55s7.27-2.93,7.27-6.55V53.5C48.77,49.89,45.26,47,41.5,47Z"/><path class="cls-1" d="M14.23,27C8.5,27,1.5,30.79,1.5,33.42v6.26a20.82,20.82,0,0,0,12.73,3.64A20.8,20.8,0,0,0,27,39.68V33.42C27,30.79,20,27,14.23,27Z"/><path class="cls-1" d="M14.23,8.77C10.47,8.77,7,11.7,7,15.32v5.09C7,24,10.47,27,14.23,27S21.5,24,21.5,20.41V15.32C21.5,11.7,18,8.77,14.23,8.77Z"/></g></g></svg>