<svg xmlns="http://www.w3.org/2000/svg" viewBox="0 0 20 20"><defs><style>.cls-1{fill:#fff;}</style></defs><title>icon_help</title><g id="レイヤー_2" data-name="レイヤー 2"><g id="デザイン"><path class="cls-1" d="M6.88,7A3.1,3.1,0,0,1,8.59,5.25,3.56,3.56,0,0,1,10,5a4.22,4.22,0,0,1,1.62.27,3,3,0,0,1,1.05.66,2.23,2.23,0,0,1,.57.86,2.32,2.32,0,0,1,.18.85,2.77,2.77,0,0,1-.18,1.08,2.59,2.59,0,0,1-.42.73,3,3,0,0,1-.56.51l-.59.42a2.78,2.78,0,0,0-.48.49,1.26,1.26,0,0,0-.27.68v.52H9v-.61a2.73,2.73,0,0,1,.22-1,3.44,3.44,0,0,1,.43-.68,4,4,0,0,1,.53-.48c.18-.14.35-.27.5-.41a2,2,0,0,0,.38-.45,1.1,1.1,0,0,0,.13-.62,1.23,1.23,0,0,0-.31-.93,1.17,1.17,0,0,0-.86-.3,1.39,1.39,0,0,0-.63.14A1.28,1.28,0,0,0,9,7.13a1.61,1.61,0,0,0-.26.56,3,3,0,0,0-.08.69h-2A3.74,3.74,0,0,1,6.88,7ZM11,12.89V15H8.83V12.89Z"/><path class="cls-1" d="M10,0A10,10,0,1,0,20,10,10,10,0,0,0,10,0Zm0,18.33A8.33,8.33,0,1,1,18.33,10,8.34,8.34,0,0,1,10,18.33Z"/></g></g></svg>