<svg xmlns="http://www.w3.org/2000/svg" width="183.65" height="51.04" viewBox="0 0 183.65 51.04">
  <defs>
    <style>
      .cls-1 {
        fill: #fff;
      }

      .cls-2 {
        fill: #dcdddd;
      }
    </style>
  </defs>
  <title>logo_nav-brand</title>
  <g id="レイヤー_2" data-name="レイヤー 2">
    <g id="デザイン">
      <g>
        <path class="cls-1" d="M8,17.46,5.74,20.31v8.13H0V0H5.74V12.4L7.56,9.34,12.85,0h7L11.74,12.5,20,28.44H13.2Z"/>
        <path class="cls-1" d="M28.57,7.3l.15,2.09a6.35,6.35,0,0,1,2.15-1.84,6.28,6.28,0,0,1,5-.22,4.29,4.29,0,0,1,1.78,1.38,7,7,0,0,1,1.15,2.5A15.13,15.13,0,0,1,39.23,15V28.44H33.68V15a7.78,7.78,0,0,0-.15-1.68,2.84,2.84,0,0,0-.46-1.05,1.57,1.57,0,0,0-.75-.55,3.38,3.38,0,0,0-1.06-.16,2.36,2.36,0,0,0-1.37.41,3.22,3.22,0,0,0-1,1.14V28.44H23.37V7.3Z"/>
        <path class="cls-1" d="M43.5,17.19a14.4,14.4,0,0,1,.61-4.4,9,9,0,0,1,1.72-3.22,7.19,7.19,0,0,1,2.68-2,9.55,9.55,0,0,1,7.08,0,7.18,7.18,0,0,1,2.7,2A9.34,9.34,0,0,1,60,12.79a14.72,14.72,0,0,1,.6,4.4v1.38A15,15,0,0,1,60,23a9.11,9.11,0,0,1-1.71,3.21,7.12,7.12,0,0,1-2.7,2,8.89,8.89,0,0,1-3.53.67,9,9,0,0,1-3.56-.67,7.09,7.09,0,0,1-2.69-2A9,9,0,0,1,44.11,23a14.37,14.37,0,0,1-.61-4.41Zm5.55,1.38a8.84,8.84,0,0,0,.8,4.31,2.47,2.47,0,0,0,2.23,1.36,2.44,2.44,0,0,0,2.26-1.36,9.16,9.16,0,0,0,.76-4.31V17.19a8.82,8.82,0,0,0-.8-4.29A2.49,2.49,0,0,0,52,11.5a2.44,2.44,0,0,0-2.2,1.4,9,9,0,0,0-.79,4.29Z"/>
        <path class="cls-1" d="M70.13,7.3l.15,2.09a6.45,6.45,0,0,1,2.15-1.84,6.28,6.28,0,0,1,5-.22,4.29,4.29,0,0,1,1.78,1.38,7,7,0,0,1,1.15,2.5A14.68,14.68,0,0,1,80.79,15V28.44H75.25V15a7.7,7.7,0,0,0-.16-1.68,2.84,2.84,0,0,0-.46-1.05,1.57,1.57,0,0,0-.75-.55,3.33,3.33,0,0,0-1.06-.16,2.33,2.33,0,0,0-1.36.41,3.24,3.24,0,0,0-1,1.14V28.44H64.93V7.3Z"/>
        <path class="cls-1" d="M93.37,24.24a2.28,2.28,0,0,0,1.78-.71,3.7,3.7,0,0,0,.66-2.42H101a8.74,8.74,0,0,1-.6,3.24,7.32,7.32,0,0,1-1.59,2.43,7,7,0,0,1-2.38,1.52,8.14,8.14,0,0,1-3,.53,9.23,9.23,0,0,1-3.71-.69,6.61,6.61,0,0,1-2.62-2A8.66,8.66,0,0,1,85.58,23a16.6,16.6,0,0,1-.52-4.32V17.13a16.74,16.74,0,0,1,.52-4.33,8.75,8.75,0,0,1,1.56-3.21,6.61,6.61,0,0,1,2.61-2,9.2,9.2,0,0,1,3.69-.69,8.51,8.51,0,0,1,3.1.54A6.49,6.49,0,0,1,98.92,9a7.15,7.15,0,0,1,1.53,2.59A11.36,11.36,0,0,1,101,15.2H95.81a5.6,5.6,0,0,0-.59-2.74,2,2,0,0,0-1.87-1,2.5,2.5,0,0,0-1.46.38A2.23,2.23,0,0,0,91.07,13a6.17,6.17,0,0,0-.37,1.76c-.06.69-.09,1.5-.09,2.41v1.52c0,.93,0,1.74.08,2.43a5.79,5.79,0,0,0,.36,1.75,2.24,2.24,0,0,0,.83,1.06A2.78,2.78,0,0,0,93.37,24.24Z"/>
        <path class="cls-1" d="M2.84,44.92H2.21v3.56H.5V40H2.21v3.49h.48L5,40H7.14l-2.95,4,3.18,4.56H5.19Z"/>
        <path class="cls-1" d="M10.71,42.14l.08.91a2.32,2.32,0,0,1,.78-.75,2,2,0,0,1,1-.27,1.86,1.86,0,0,1,1.5.62,2.91,2.91,0,0,1,.54,2v3.88H12.93V44.61a1.51,1.51,0,0,0-.24-1,.86.86,0,0,0-.71-.28,1.57,1.57,0,0,0-.67.14,1.43,1.43,0,0,0-.48.4v4.58H9.12V42.14Z"/>
        <path class="cls-2" d="M16.71,45.26a3.49,3.49,0,0,1,.76-2.32A2.55,2.55,0,0,1,19.54,42a2.56,2.56,0,0,1,2.08.91,3.45,3.45,0,0,1,.77,2.32v.12a3.5,3.5,0,0,1-.77,2.33,2.55,2.55,0,0,1-2.07.9,2.57,2.57,0,0,1-2.08-.91,3.45,3.45,0,0,1-.76-2.32Zm1.15.12a3,3,0,0,0,.43,1.67,1.52,1.52,0,0,0,2.51,0,3,3,0,0,0,.43-1.67v-.12a3,3,0,0,0-.43-1.66,1.42,1.42,0,0,0-1.26-.66,1.39,1.39,0,0,0-1.25.66,3,3,0,0,0-.43,1.66Z"/>
        <path class="cls-2" d="M26.21,46.18l.15.81h0l.16-.81,1.26-4h.93l1.27,4,.16.9h0l.19-.9.93-4h1.21L30.7,48.48h-.93l-1.25-3.86-.25-1h0l-.22,1-1.23,3.86h-.94L24,42.14h1.2Z"/>
        <path class="cls-2" d="M35.84,48.48H34.69V39.34h1.15Z"/>
        <path class="cls-2" d="M41.18,48.61a2.66,2.66,0,0,1-2.13-.88,3.33,3.33,0,0,1-.76-2.29v-.26a3.28,3.28,0,0,1,.79-2.26A2.47,2.47,0,0,1,41,42a2.3,2.3,0,0,1,1.91.79,3.28,3.28,0,0,1,.63,2.1v.61h-4l0,0a2.63,2.63,0,0,0,.42,1.55,1.48,1.48,0,0,0,1.29.6,2.92,2.92,0,0,0,1-.17,2.31,2.31,0,0,0,.76-.46l.45.75a2.7,2.7,0,0,1-.9.55A3.54,3.54,0,0,1,41.18,48.61ZM41,42.94a1.27,1.27,0,0,0-1,.46,2.25,2.25,0,0,0-.48,1.19v0h2.86v-.09a1.82,1.82,0,0,0-.34-1.14A1.24,1.24,0,0,0,41,42.94Z"/>
        <path class="cls-2" d="M45.59,45.43A4.22,4.22,0,0,1,46.25,43,2.1,2.1,0,0,1,48.08,42a2.4,2.4,0,0,1,1,.2,2.1,2.1,0,0,1,.73.6V39.34H51v9.14h-.89l-.17-.8a2,2,0,0,1-.77.69,2.27,2.27,0,0,1-1.06.24,2.18,2.18,0,0,1-1.82-.84,3.49,3.49,0,0,1-.66-2.22Zm1.16.12a2.68,2.68,0,0,0,.39,1.54,1.36,1.36,0,0,0,1.22.58,1.61,1.61,0,0,0,.87-.23,1.85,1.85,0,0,0,.57-.66v-3a1.73,1.73,0,0,0-.58-.62,1.47,1.47,0,0,0-.85-.24,1.33,1.33,0,0,0-1.23.69,3.58,3.58,0,0,0-.39,1.78Z"/>
        <path class="cls-2" d="M53.42,45.43A4.29,4.29,0,0,1,54.07,43,2.12,2.12,0,0,1,55.9,42a2.27,2.27,0,0,1,1.06.24,2.23,2.23,0,0,1,.77.7l.14-.83h.92v6.38a2.42,2.42,0,0,1-.71,1.87A2.9,2.9,0,0,1,56,51a4.44,4.44,0,0,1-1-.12,4.29,4.29,0,0,1-.94-.34l.18-.9a3.12,3.12,0,0,0,.8.28,3.8,3.8,0,0,0,.93.11,1.72,1.72,0,0,0,1.23-.38,1.59,1.59,0,0,0,.38-1.17V47.8a2,2,0,0,1-.74.6,2.26,2.26,0,0,1-1,.21,2.18,2.18,0,0,1-1.82-.84,3.55,3.55,0,0,1-.65-2.22Zm1.15.12a2.72,2.72,0,0,0,.4,1.54,1.34,1.34,0,0,0,1.21.58,1.49,1.49,0,0,0,.87-.24,1.74,1.74,0,0,0,.58-.67V43.84a1.79,1.79,0,0,0-.58-.64,1.5,1.5,0,0,0-.86-.24,1.31,1.31,0,0,0-1.22.69,3.58,3.58,0,0,0-.4,1.78Z"/>
        <path class="cls-2" d="M64.06,48.61a2.66,2.66,0,0,1-2.13-.88,3.33,3.33,0,0,1-.76-2.29v-.26A3.32,3.32,0,0,1,62,42.92,2.5,2.5,0,0,1,63.88,42a2.3,2.3,0,0,1,1.91.79,3.28,3.28,0,0,1,.63,2.1v.61H62.37l0,0a2.63,2.63,0,0,0,.42,1.55,1.47,1.47,0,0,0,1.29.6,3,3,0,0,0,1-.17,2.41,2.41,0,0,0,.76-.46l.45.75a2.81,2.81,0,0,1-.9.55A3.57,3.57,0,0,1,64.06,48.61Zm-.18-5.67a1.25,1.25,0,0,0-1,.46,2.25,2.25,0,0,0-.48,1.19v0h2.86v-.09a1.88,1.88,0,0,0-.34-1.14A1.24,1.24,0,0,0,63.88,42.94Z"/>
        <path class="cls-2" d="M72.78,48.48V40h2.78a3.39,3.39,0,0,1,2.09.58,2,2,0,0,1,.76,1.73,1.6,1.6,0,0,1-.34,1,2.16,2.16,0,0,1-.9.66,2,2,0,0,1,1.32.73A2.22,2.22,0,0,1,79,46.08a2.18,2.18,0,0,1-.76,1.79,3.18,3.18,0,0,1-2.06.61Zm1.15-4.9H75.8a1.57,1.57,0,0,0,1-.35,1.45,1.45,0,0,0,0-2,2.06,2.06,0,0,0-1.26-.34H73.93Zm0,.9v3.1h2.23a1.8,1.8,0,0,0,1.23-.39,1.4,1.4,0,0,0,.43-1.1A1.53,1.53,0,0,0,77.38,45a1.76,1.76,0,0,0-1.2-.47H73.93Z"/>
        <path class="cls-2" d="M85.19,48.48c0-.19-.07-.36-.09-.5s0-.3,0-.44a2.69,2.69,0,0,1-.84.76,2.16,2.16,0,0,1-1.11.31,2.06,2.06,0,0,1-1.51-.51,1.85,1.85,0,0,1-.52-1.4,1.64,1.64,0,0,1,.74-1.42,3.43,3.43,0,0,1,2-.51h1.25v-.63a1.15,1.15,0,0,0-.34-.88,1.3,1.3,0,0,0-1-.32,1.36,1.36,0,0,0-.9.28.83.83,0,0,0-.35.67h-1.1v0a1.54,1.54,0,0,1,.65-1.27A2.7,2.7,0,0,1,83.83,42a2.57,2.57,0,0,1,1.73.55,1.92,1.92,0,0,1,.66,1.57v3.06c0,.22,0,.44,0,.65a4.26,4.26,0,0,0,.13.62Zm-1.91-.84a2.1,2.1,0,0,0,1.13-.32,1.55,1.55,0,0,0,.65-.74v-1H83.77a1.71,1.71,0,0,0-1.12.35,1,1,0,0,0-.42.83.84.84,0,0,0,.27.66A1.06,1.06,0,0,0,83.28,47.64Z"/>
        <path class="cls-2" d="M92.44,46.78a.78.78,0,0,0-.29-.62,2.84,2.84,0,0,0-1.1-.42,4.56,4.56,0,0,1-1.72-.68,1.36,1.36,0,0,1-.6-1.16,1.68,1.68,0,0,1,.66-1.32,2.92,2.92,0,0,1,3.45,0A1.67,1.67,0,0,1,93.48,44v0h-1.1a1,1,0,0,0-.36-.74,1.31,1.31,0,0,0-.91-.33,1.37,1.37,0,0,0-.92.27.85.85,0,0,0-.3.66.71.71,0,0,0,.26.58,3.08,3.08,0,0,0,1.08.37,4.62,4.62,0,0,1,1.77.7,1.4,1.4,0,0,1,.6,1.18,1.66,1.66,0,0,1-.68,1.37,3.24,3.24,0,0,1-3.7-.08,1.78,1.78,0,0,1-.66-1.43v0h1.11a1.08,1.08,0,0,0,.45.9,1.78,1.78,0,0,0,1,.29,1.55,1.55,0,0,0,1-.27A.79.79,0,0,0,92.44,46.78Z"/>
        <path class="cls-2" d="M98.56,48.61a2.66,2.66,0,0,1-2.13-.88,3.33,3.33,0,0,1-.76-2.29v-.26a3.32,3.32,0,0,1,.78-2.26A2.5,2.5,0,0,1,98.38,42a2.3,2.3,0,0,1,1.91.79,3.28,3.28,0,0,1,.63,2.1v.61h-4l0,0a2.63,2.63,0,0,0,.42,1.55,1.47,1.47,0,0,0,1.29.6,3,3,0,0,0,1-.17,2.41,2.41,0,0,0,.76-.46l.45.75a2.81,2.81,0,0,1-.9.55A3.57,3.57,0,0,1,98.56,48.61Zm-.18-5.67a1.25,1.25,0,0,0-1,.46,2.25,2.25,0,0,0-.48,1.19v0h2.86v-.09a1.88,1.88,0,0,0-.34-1.14A1.24,1.24,0,0,0,98.38,42.94Z"/>
        <path class="cls-2" d="M107.6,48.48V43h-1v-.86h1v-.8a2.21,2.21,0,0,1,.53-1.57,2,2,0,0,1,1.48-.55,2.69,2.69,0,0,1,.4,0l.45.09-.14.88-.26,0-.31,0a.88.88,0,0,0-.75.31,1.37,1.37,0,0,0-.25.87v.8h1.15V43h-1.15v5.48Z"/>
        <path class="cls-2" d="M111.6,45.26a3.49,3.49,0,0,1,.76-2.32,2.82,2.82,0,0,1,4.15,0,3.45,3.45,0,0,1,.77,2.32v.12a3.5,3.5,0,0,1-.77,2.33,2.83,2.83,0,0,1-4.15,0,3.45,3.45,0,0,1-.76-2.32Zm1.15.12a3,3,0,0,0,.43,1.67,1.52,1.52,0,0,0,2.51,0,3,3,0,0,0,.43-1.67v-.12a3,3,0,0,0-.43-1.66,1.42,1.42,0,0,0-1.26-.66,1.39,1.39,0,0,0-1.25.66,3,3,0,0,0-.43,1.66Z"/>
        <path class="cls-2" d="M122.67,43.16l-.59,0a1.28,1.28,0,0,0-1.25.83v4.52h-1.16V42.14h1l.11.93a2.31,2.31,0,0,1,.67-.77,1.57,1.57,0,0,1,.91-.27,1,1,0,0,1,.25,0l.19,0Z"/>
        <path class="cls-1" d="M128.22,45.26a3.41,3.41,0,0,1,.79-2.33,3.13,3.13,0,0,1,4.39,0,3.35,3.35,0,0,1,.8,2.33v.12a3.39,3.39,0,0,1-.79,2.33,3.14,3.14,0,0,1-4.4,0,3.39,3.39,0,0,1-.79-2.33Zm1.7.12a2.78,2.78,0,0,0,.31,1.39,1.17,1.17,0,0,0,2,0,2.7,2.7,0,0,0,.31-1.39v-.12a2.66,2.66,0,0,0-.31-1.38,1.16,1.16,0,0,0-2,0,2.82,2.82,0,0,0-.31,1.38Z"/>
        <path class="cls-1" d="M137.8,42.14l.07.91a2.32,2.32,0,0,1,.78-.75,2,2,0,0,1,1-.27,1.86,1.86,0,0,1,1.5.62,2.91,2.91,0,0,1,.54,2v3.88H140V44.61a1.51,1.51,0,0,0-.24-1,.85.85,0,0,0-.71-.28,1.57,1.57,0,0,0-.67.14,1.43,1.43,0,0,0-.48.4v4.58H136.2V42.14Z"/>
        <path class="cls-1" d="M146.65,47.29a1,1,0,0,0,.71-.26,1,1,0,0,0,.26-.71h1.56v0a2,2,0,0,1-.71,1.61,3,3,0,0,1-4-.25,3.43,3.43,0,0,1-.76-2.3v-.18a3.45,3.45,0,0,1,.76-2.3,2.69,2.69,0,0,1,2.17-.9,2.57,2.57,0,0,1,1.86.67,2.18,2.18,0,0,1,.69,1.75v0h-1.56a1.3,1.3,0,0,0-.26-.82.86.86,0,0,0-.72-.32,1,1,0,0,0-.95.53,3,3,0,0,0-.27,1.35v.18a2.93,2.93,0,0,0,.27,1.36A1,1,0,0,0,146.65,47.29Z"/>
        <path class="cls-2" d="M151,45.26a3.49,3.49,0,0,1,.76-2.32,2.82,2.82,0,0,1,4.15,0,3.45,3.45,0,0,1,.77,2.32v.12a3.5,3.5,0,0,1-.77,2.33,2.83,2.83,0,0,1-4.15,0,3.45,3.45,0,0,1-.76-2.32Zm1.15.12a3,3,0,0,0,.43,1.67,1.52,1.52,0,0,0,2.51,0,3,3,0,0,0,.43-1.67v-.12a3,3,0,0,0-.43-1.66,1.42,1.42,0,0,0-1.26-.66,1.39,1.39,0,0,0-1.25.66,3,3,0,0,0-.43,1.66Z"/>
        <path class="cls-2" d="M160.26,48.48h-1.15V39.34h1.15Z"/>
        <path class="cls-2" d="M162.71,45.26a3.49,3.49,0,0,1,.77-2.32,2.52,2.52,0,0,1,2.06-.91,2.58,2.58,0,0,1,2.09.91,3.45,3.45,0,0,1,.76,2.32v.12a3.49,3.49,0,0,1-.76,2.33,2.83,2.83,0,0,1-4.15,0,3.45,3.45,0,0,1-.77-2.32Zm1.16.12a3,3,0,0,0,.42,1.67,1.42,1.42,0,0,0,1.27.66,1.39,1.39,0,0,0,1.25-.66,3,3,0,0,0,.43-1.67v-.12a3,3,0,0,0-.43-1.66,1.42,1.42,0,0,0-1.27-.66,1.4,1.4,0,0,0-1.25.66,3,3,0,0,0-.42,1.66Z"/>
        <path class="cls-2" d="M170.56,45.43a4.29,4.29,0,0,1,.65-2.47A2.12,2.12,0,0,1,173,42a2.27,2.27,0,0,1,1.06.24,2.23,2.23,0,0,1,.77.7l.14-.83h.92v6.38a2.42,2.42,0,0,1-.71,1.87,2.9,2.9,0,0,1-2.05.65,4.44,4.44,0,0,1-1-.12,4.29,4.29,0,0,1-.94-.34l.18-.9a3.12,3.12,0,0,0,.8.28,3.8,3.8,0,0,0,.93.11,1.72,1.72,0,0,0,1.23-.38,1.63,1.63,0,0,0,.38-1.17V47.8a2,2,0,0,1-.74.6,2.26,2.26,0,0,1-1,.21,2.18,2.18,0,0,1-1.82-.84,3.55,3.55,0,0,1-.65-2.22Zm1.15.12a2.65,2.65,0,0,0,.4,1.54,1.34,1.34,0,0,0,1.21.58,1.49,1.49,0,0,0,.87-.24,1.74,1.74,0,0,0,.58-.67V43.84a1.79,1.79,0,0,0-.58-.64,1.5,1.5,0,0,0-.86-.24,1.31,1.31,0,0,0-1.22.69,3.58,3.58,0,0,0-.4,1.78Z"/>
        <path class="cls-2" d="M180.57,46.13l.2.8h0l1.56-4.79h1.28L181,49.46a3.49,3.49,0,0,1-.68,1.11,1.58,1.58,0,0,1-1.21.47l-.36,0-.34-.06.12-.91h.21l.31,0a.72.72,0,0,0,.6-.33A2.93,2.93,0,0,0,180,49l.28-.66-2.36-6.22h1.29Z"/>
      </g>
    </g>
  </g>
</svg>
