<svg xmlns="http://www.w3.org/2000/svg" viewBox="0 0 44.5 47.5"><defs><style>.cls-1{fill:none;stroke:#aaa;stroke-linecap:round;stroke-linejoin:round;stroke-width:2.5px;}</style></defs><title>icon_mutations</title><g id="レイヤー_2" data-name="レイヤー 2"><g id="デザイン"><line class="cls-1" x1="14.58" y1="17.41" x2="29.92" y2="30.09"/><path class="cls-1" d="M19.15,35.32c1.36,3,1.55,6-.86,8.88l-1.7,2"/><line class="cls-1" x1="12.81" y1="21.13" x2="26.62" y2="32.53"/><line class="cls-1" x1="3.15" y1="31.27" x2="18.5" y2="43.94"/><line class="cls-1" x1="6.46" y1="28.82" x2="20.27" y2="40.23"/><path class="cls-1" d="M33,18.51c3.2.76,6.13.39,8.54-2.53l1.69-2.06"/><path class="cls-1" d="M23.12,14.88c-3.2-.77-6.13-.39-8.54,2.53s-2.22,5.88-.87,8.88"/><path class="cls-1" d="M27.91,1.25,26.21,3.3c-3.61,4.38-1.39,8.82,1.86,13.39s5.46,9,1.85,13.4-8.38,3-13.49.72-9.87-3.67-13.49.71L1.25,33.58"/><line class="cls-1" x1="17.88" y1="14.97" x2="31.69" y2="26.37"/><line class="cls-1" x1="26" y1="3.56" x2="41.35" y2="16.23"/><line class="cls-1" x1="24.23" y1="7.27" x2="38.04" y2="18.68"/></g></g></svg>