<svg xmlns="http://www.w3.org/2000/svg" viewBox="0 0 46.5 47.5"><defs><style>.cls-1{fill:none;stroke:#aaa;stroke-linecap:round;stroke-linejoin:round;stroke-width:2.5px;}</style></defs><title>icon_copy-number-variants</title><g id="レイヤー_2" data-name="レイヤー 2"><g id="デザイン"><path class="cls-1" d="M41.69,39.05c2.11,1,3.56,2.58,3.56,5.3v1.9"/><line class="cls-1" x1="31.71" y1="33.11" x2="44.54" y2="33.11"/><line class="cls-1" x1="31" y1="44.11" x2="45.25" y2="44.11"/><path class="cls-1" d="M41.69,23.45c2.11-1,3.56-2.58,3.56-5.3v-1.9"/><path class="cls-1" d="M34.56,26C32.45,27,31,28.54,31,31.25s1.45,4.26,3.56,5.29"/><path class="cls-1" d="M31,16.25v1.9c0,4.07,3.25,5.51,7.13,6.55s7.12,2.48,7.12,6.55S42,36.75,38.13,37.8,31,40.28,31,44.35v1.9"/><line class="cls-1" x1="31.71" y1="29.39" x2="44.54" y2="29.39"/><line class="cls-1" x1="31" y1="18.39" x2="45.25" y2="18.39"/><line class="cls-1" x1="1.25" y1="23.75" x2="22.63" y2="23.75"/><path class="cls-1" d="M17.28,35.45c3.17,1.56,5.35,3.87,5.35,7.94v2.86"/><line class="cls-1" x1="2.32" y1="28.04" x2="21.56" y2="28.04"/><line class="cls-1" x1="1.25" y1="43.04" x2="22.63" y2="43.04"/><line class="cls-1" x1="2.32" y1="38.75" x2="21.56" y2="38.75"/><path class="cls-1" d="M17.28,12.05c3.17-1.56,5.35-3.87,5.35-7.94V1.25"/><path class="cls-1" d="M6.59,15.81c-3.17,1.56-5.34,3.87-5.34,7.94s2.17,6.39,5.35,7.94"/><path class="cls-1" d="M1.25,1.25V4.11c0,6.1,4.87,8.25,10.69,9.82s10.69,3.72,10.69,9.82S17.75,32,11.94,33.57,1.25,37.29,1.25,43.39v2.86"/><line class="cls-1" x1="2.32" y1="19.46" x2="21.56" y2="19.46"/><line class="cls-1" x1="1.25" y1="4.46" x2="22.63" y2="4.46"/><line class="cls-1" x1="2.32" y1="8.75" x2="21.56" y2="8.75"/></g></g></svg>