<svg xmlns="http://www.w3.org/2000/svg" viewBox="0 0 47.5 47.5"><defs><style>.cls-1{fill:none;stroke:#aaa;stroke-linecap:round;stroke-linejoin:round;stroke-width:2.5px;}</style></defs><title>icon_structural-variants</title><g id="レイヤー_2" data-name="レイヤー 2"><g id="デザイン"><line class="cls-1" x1="17.25" y1="17.25" x2="25.25" y2="25.25"/><path class="cls-1" d="M18.27,33.72c1.08,3.13,1,6.09-1.7,8.78l-1.18,1.18"/><line class="cls-1" x1="16.25" y1="22.25" x2="22.25" y2="28.25"/><line class="cls-1" x1="4.79" y1="30.24" x2="14.68" y2="40.14"/><line class="cls-1" x1="9.03" y1="28.83" x2="16.1" y2="35.9"/><path class="cls-1" d="M33.72,18.27c3.13,1.08,6.09,1,8.78-1.7l1.18-1.18"/><path class="cls-1" d="M24.17,13.69c-3.13-1.07-6.09-1-8.78,1.7s-2.77,5.65-1.7,8.78"/><path class="cls-1" d="M22.25,31.66A22.9,22.9,0,0,1,16,28.94c-4.88-2.81-9.53-4.61-13.55-.58L1.25,29.53"/><path class="cls-1" d="M29.53,1.25,28.36,2.43c-4,4-2.23,8.67.58,13.55a26.63,26.63,0,0,1,2.46,5.27"/><line class="cls-1" x1="22.25" y1="16.25" x2="28.25" y2="22.25"/><line class="cls-1" x1="30.24" y1="4.79" x2="40.14" y2="14.68"/><line class="cls-1" x1="28.83" y1="9.03" x2="35.9" y2="16.1"/><circle class="cls-1" cx="34.25" cy="33.25" r="9"/><line class="cls-1" x1="40.25" y1="40.25" x2="46.25" y2="46.25"/></g></g></svg>