<svg xmlns="http://www.w3.org/2000/svg" viewBox="0 0 47.5 47.5"><defs><style>.cls-1{fill:none;stroke:#aaa;stroke-linecap:round;stroke-linejoin:round;stroke-width:2.5px;}</style></defs><title>icon_cases</title><g id="レイヤー_2" data-name="レイヤー 2"><g id="デザイン"><path class="cls-1" d="M29.89,40.25a4.26,4.26,0,0,0,4.09-4v-9c0-3.3-6.68-5-10.23-5s-10.23,1.7-10.23,5v9a4.26,4.26,0,0,0,4.09,4"/><path class="cls-1" d="M42.16,42.25c2,0,4.09-1,4.09-3v-9c0-3.3-6-5-9.2-5-.32,0-.66,0-1,.05"/><path class="cls-1" d="M23.75,19.25c2.38,0,4.09-1.47,4.09-3.6v-1.8c0-2.13-1.71-3.6-4.09-3.6s-4.09,1.47-4.09,3.6v1.8C19.66,17.78,21.37,19.25,23.75,19.25Z"/><line class="cls-1" x1="42.16" y1="46.25" x2="42.16" y2="32.25"/><line class="cls-1" x1="29.89" y1="46.25" x2="29.89" y2="29.25"/><line class="cls-1" x1="17.61" y1="29.25" x2="17.61" y2="46.25"/><path class="cls-1" d="M38.07,22.25c2.38,0,4.09-1.47,4.09-3.6v-1.8c0-2.13-1.71-3.6-4.09-3.6S34,14.72,34,16.85v1.8C34,20.78,35.68,22.25,38.07,22.25Z"/><path class="cls-1" d="M5.34,42.25c-2,0-4.09-1-4.09-3v-9c0-3.3,6-5,9.2-5,.32,0,.66,0,1,.05"/><line class="cls-1" x1="5.34" y1="46.25" x2="5.34" y2="32.25"/><path class="cls-1" d="M9.43,22.25c-2.38,0-4.09-1.47-4.09-3.6v-1.8c0-2.13,1.71-3.6,4.09-3.6s4.09,1.47,4.09,3.6v1.8C13.52,20.78,11.82,22.25,9.43,22.25Z"/><path class="cls-1" d="M14.55,10.25c-2.39,0-4.1-1.47-4.1-3.6V4.85c0-2.13,1.71-3.6,4.1-3.6s4.09,1.47,4.09,3.6v1.8C18.64,8.78,16.93,10.25,14.55,10.25Z"/><path class="cls-1" d="M33,10.25c-2.38,0-4.09-1.47-4.09-3.6V4.85c0-2.13,1.71-3.6,4.09-3.6s4.1,1.47,4.1,3.6v1.8C37.05,8.78,35.34,10.25,33,10.25Z"/></g></g></svg>