<svg xmlns="http://www.w3.org/2000/svg" viewBox="0 0 73 83"><defs><style>.cls-1{fill:none;stroke:#fff;stroke-linecap:round;stroke-linejoin:round;stroke-width:3px;}</style></defs><title>icon_database</title><g id="レイヤー_2" data-name="レイヤー 2"><g id="デザイン"><path class="cls-1" d="M16.87,37.24A7,7,0,0,0,23.7,30V27.52a7,7,0,0,0-6.83-7.3A7,7,0,0,0,10,27.52V30A7,7,0,0,0,16.87,37.24Z"/><path class="cls-1" d="M30.53,45.76c-2.28-1.21-6.69-3.27-10.25-3.41H11.74C5.63,42.35,1.5,44.92,1.5,52.56v6.81c0,6.81,5.53,8.51,10.24,8.51h6.83"/><path class="cls-1" d="M10,50.86v6.81a1.7,1.7,0,0,0,1.7,1.7H22"/><line class="cls-1" x1="8.33" y1="67.88" x2="8.33" y2="81.5"/><line class="cls-1" x1="27.11" y1="71.29" x2="27.11" y2="81.5"/><path class="cls-1" d="M38.66,64.48H32.23l3.42-6.81h5.77A1.7,1.7,0,0,1,43,60.13L41.71,62.6A3.42,3.42,0,0,1,38.66,64.48Z"/><line class="cls-1" x1="16.87" y1="50.86" x2="25.4" y2="55.97"/><polyline class="cls-1" points="40.77 57.67 44.18 50.86 27.11 50.86 16.87 71.29 33.94 71.29 37.35 64.48"/><path class="cls-1" d="M35.65,1.5H66.38A5.11,5.11,0,0,1,71.5,6.61V27a6.82,6.82,0,0,1-6.83,6.81H49.3l-7.17,9.53a1.71,1.71,0,0,1-3.07-1V33.84H35.65a5.12,5.12,0,0,1-5.13-5.11V6.61A5.12,5.12,0,0,1,35.65,1.5Z"/><polyline class="cls-1" points="42.48 18.52 49.3 25.33 61.26 10.01"/></g></g></svg>