<svg xmlns="http://www.w3.org/2000/svg" width="38.3" height="38.3" viewBox="0 0 38.3 38.3">
  <defs>
    <style>
      .cls-1 {
        fill: none;
        stroke: #fff;
        stroke-linecap: round;
        stroke-linejoin: round;
        stroke-width: 2.3px;
      }
    </style>
  </defs>
  <title>icon_about-knonc_sm</title>
  <g id="レイヤー_2" data-name="レイヤー 2">
    <g id="aboutのコピー">
      <g>
        <path class="cls-1" d="M28.156,33.877a15.9,15.9,0,0,0,8.176-11.346"/>
        <path class="cls-1" d="M10.15,33.877A15.9,15.9,0,0,1,1.974,22.531"/>
        <path class="cls-1" d="M26.832,3.055a16.448,16.448,0,0,0-15.367,0"/>
        <path class="cls-1" d="M31.423,12.605c-2.578,0-5.728,1.727-5.728,2.909v2.818a9.377,9.377,0,0,0,5.728,1.636,9.374,9.374,0,0,0,5.727-1.636V15.514C37.15,14.332,34,12.605,31.423,12.605Z"/>
        <path class="cls-1" d="M31.423,4.423A3.2,3.2,0,0,0,28.15,7.369v2.29a3.291,3.291,0,0,0,6.545,0V7.369A3.2,3.2,0,0,0,31.423,4.423Z"/>
        <path class="cls-1" d="M19.15,29.786c-2.577,0-5.727,1.728-5.727,2.909v2.819A8.825,8.825,0,0,0,19.15,37.15a8.825,8.825,0,0,0,5.727-1.636V32.7C24.877,31.514,21.727,29.786,19.15,29.786Z"/>
        <path class="cls-1" d="M19.15,21.605a3.2,3.2,0,0,0-3.273,2.946V26.84a3.291,3.291,0,0,0,6.546,0V24.551A3.2,3.2,0,0,0,19.15,21.605Z"/>
        <path class="cls-1" d="M6.877,12.605c-2.577,0-5.727,1.727-5.727,2.909v2.818a9.374,9.374,0,0,0,5.727,1.636,9.377,9.377,0,0,0,5.728-1.636V15.514C12.605,14.332,9.455,12.605,6.877,12.605Z"/>
        <path class="cls-1" d="M6.877,4.423A3.2,3.2,0,0,0,3.605,7.369v2.29a3.2,3.2,0,0,0,3.272,2.946A3.2,3.2,0,0,0,10.15,9.659V7.369A3.2,3.2,0,0,0,6.877,4.423Z"/>
      </g>
    </g>
  </g>
</svg>
