<svg xmlns="http://www.w3.org/2000/svg" width="38.3" height="33.8" viewBox="0 0 38.3 33.8">
  <defs>
    <style>
      .cls-1 {
        fill: none;
        stroke: #fff;
        stroke-linecap: round;
        stroke-linejoin: round;
        stroke-width: 2.3px;
      }
    </style>
  </defs>
  <title>icon_analyze_sm</title>
  <g id="レイヤー_2" data-name="レイヤー 2">
    <g id="aboutのコピー">
      <g>
        <polyline class="cls-1" points="1.15 8.327 1.15 21.087 5.846 21.884"/>
        <path class="cls-1" d="M5.344,4.771a24.071,24.071,0,0,1,7.264-2.026l4.194,7.56L1.15,8.279A9.21,9.21,0,0,1,5.344,4.771Z"/>
        <path class="cls-1" d="M27.759,7.34a21.476,21.476,0,0,1,4.793,1.539c6.111,2.873,6.111,7.532,0,10.405s-16.02,2.873-22.132,0c-4.133-1.944-5.461-4.7-4-7.175l15.1,1.9Z"/>
        <path class="cls-1" d="M37.15,14.308V25.251c0,4.086-7.008,7.4-15.652,7.4s-15.652-3.313-15.652-7.4V14.308"/>
        <path class="cls-1" d="M28.091,1.853a30.229,30.229,0,0,0-6.593-.7,30.637,30.637,0,0,0-5.949.566l4.678,8.71Z"/>
      </g>
    </g>
  </g>
</svg>
